<svg width="60" height="60" viewBox="0 0 60 60" fill="none" xmlns="http://www.w3.org/2000/svg">
<g opacity="0.95">
<path d="M40.9371 8.12461C43.8355 8.13327 46.6126 9.28847 48.6621 11.3379C50.7115 13.3874 51.8667 16.1645 51.8754 19.0629V40.9371C51.8667 43.8355 50.7115 46.6126 48.6621 48.6621C46.6126 50.7115 43.8355 51.8667 40.9371 51.8754H19.0629C16.1645 51.8667 13.3874 50.7115 11.3379 48.6621C9.28847 46.6126 8.13327 43.8355 8.12461 40.9371V19.0629C8.13327 16.1645 9.28847 13.3874 11.3379 11.3379C13.3874 9.28847 16.1645 8.13327 19.0629 8.12461H40.9371V8.12461ZM40.9371 3.75H19.0629C10.6406 3.75 3.75 10.6406 3.75 19.0629V40.9371C3.75 49.3594 10.6406 56.25 19.0629 56.25H40.9371C49.3594 56.25 56.25 49.3594 56.25 40.9371V19.0629C56.25 10.6406 49.3594 3.75 40.9371 3.75V3.75Z" fill="#FFFFFF"/>
<path d="M44.2184 19.063C43.5694 19.063 42.935 18.8705 42.3954 18.51C41.8558 18.1495 41.4352 17.637 41.1869 17.0374C40.9385 16.4378 40.8735 15.7781 41.0002 15.1416C41.1268 14.5051 41.4393 13.9204 41.8982 13.4615C42.3571 13.0027 42.9417 12.6901 43.5782 12.5635C44.2147 12.4369 44.8745 12.5019 45.474 12.7503C46.0736 12.9986 46.5861 13.4192 46.9466 13.9588C47.3072 14.4984 47.4996 15.1328 47.4996 15.7817C47.5005 16.2129 47.4163 16.64 47.2517 17.0385C47.0872 17.437 46.8455 17.7991 46.5406 18.104C46.2357 18.4089 45.8737 18.6505 45.4751 18.8151C45.0766 18.9797 44.6495 19.0639 44.2184 19.063V19.063Z" fill="#FFFFFF"/>
<path d="M30 21.2496C31.7307 21.2496 33.4225 21.7628 34.8615 22.7243C36.3005 23.6858 37.422 25.0524 38.0843 26.6514C38.7466 28.2503 38.9199 30.0097 38.5823 31.7071C38.2446 33.4045 37.4112 34.9637 36.1875 36.1875C34.9637 37.4112 33.4045 38.2446 31.7071 38.5823C30.0097 38.9199 28.2503 38.7466 26.6514 38.0843C25.0525 37.422 23.6858 36.3005 22.7243 34.8615C21.7628 33.4225 21.2496 31.7307 21.2496 30C21.2521 27.68 22.1748 25.4558 23.8153 23.8153C25.4558 22.1748 27.68 21.2521 30 21.2496V21.2496ZM30 16.875C27.4041 16.875 24.8665 17.6448 22.7081 19.087C20.5498 20.5292 18.8675 22.579 17.8741 24.9773C16.8807 27.3756 16.6208 30.0146 17.1272 32.5606C17.6336 35.1066 18.8837 37.4452 20.7192 39.2808C22.5548 41.1163 24.8934 42.3664 27.4394 42.8728C29.9854 43.3792 32.6244 43.1193 35.0227 42.1259C37.421 41.1325 39.4708 39.4503 40.913 37.2919C42.3552 35.1335 43.125 32.5959 43.125 30C43.125 26.519 41.7422 23.1806 39.2808 20.7192C36.8194 18.2578 33.481 16.875 30 16.875V16.875Z" fill="#FFFFFF"/>
</g>
</svg>
