<svg width="1129" height="400" viewBox="0 0 1129 400" fill="none" xmlns="http://www.w3.org/2000/svg">
<rect width="1129" height="400" rx="12" fill="#131111"/>
<path d="M486.752 200.05V206.3H501.102V235.05H507.352V206.3H521.702V200.05H486.752ZM536.192 206.25H561.742V200H536.192C530.992 200 526.792 204.25 526.792 209.45V225.55C526.792 230.75 530.992 235 536.192 235H561.742V228.75H536.192C534.442 228.75 532.992 227.3 532.992 225.55V218.95H555.492V212.7H532.992V209.45C532.992 207.7 534.442 206.25 536.192 206.25ZM580.998 206.25H598.498V200H580.998C571.348 200 563.498 207.85 563.498 217.5C563.498 227.15 571.348 235 580.998 235H598.498V228.75H580.998C574.798 228.75 569.748 223.7 569.748 217.5C569.748 211.3 574.798 206.25 580.998 206.25ZM632.25 200V212.7H609.75V200H603.5V235H609.75V218.95H632.25V235H638.5V200H632.25ZM649.74 235V200H643.49V235H649.74ZM664.171 206.25H689.721V200H664.171C658.971 200 654.771 204.25 654.771 209.45V225.55C654.771 230.75 658.971 235 664.171 235H689.721V228.75H664.171C662.421 228.75 660.971 227.3 660.971 225.55V218.95H683.471V212.7H660.971V209.45C660.971 207.7 662.421 206.25 664.171 206.25ZM705.211 228.75C703.011 228.45 701.261 226.7 700.961 224.5V200.05H694.711V223.9C694.711 225.65 695.111 227.3 695.861 228.8C696.911 231 698.711 232.8 700.911 233.9C702.411 234.65 704.061 235.05 705.811 235.05H723.561V228.8L705.211 228.75ZM759.049 228.75L744.399 200L729.749 228.75L726.549 235H733.549L736.749 228.75L744.399 213.75L752.049 228.75L755.249 235H762.249L759.049 228.75ZM794.018 200V222.3L771.518 204.95L765.268 200.15V235.05H771.518V212.9L794.018 230.25L800.268 235.05V200.05L794.018 200ZM822.758 200H805.258V235H822.758C827.558 235 831.908 233.05 835.058 229.85C835.408 229.5 835.758 229.15 836.058 228.8C838.658 225.75 840.208 221.8 840.208 217.5C840.208 207.85 832.358 200.05 822.708 200.05L822.758 200ZM822.708 228.8H811.458V206.3H822.708C828.908 206.3 833.958 211.35 833.958 217.55C833.958 223.75 828.908 228.8 822.708 228.8Z" fill="white"/>
<path fill-rule="evenodd" clip-rule="evenodd" d="M471.848 58.5563C471.848 63.2818 467.896 67.1125 463.02 67.1125C461.514 67.1125 460.096 66.7468 458.855 66.102L439.298 86.8922H453.827C456.283 86.8922 457.699 89.6811 456.249 91.6631L368.338 211.868C368.23 212.016 368.112 212.15 367.986 212.271V345.136H385.177V349.136H365.986H345.051V345.136H363.986V212.396C363.807 212.245 363.642 212.069 363.495 211.868L275.584 91.6631C274.134 89.6811 275.55 86.8922 278.005 86.8922H435.179L456.454 64.2755C455.048 62.7599 454.193 60.755 454.193 58.5563C454.193 53.8308 458.145 50 463.02 50C467.896 50 471.848 53.8308 471.848 58.5563ZM406.685 121.562H416.958C417.372 121.562 417.606 122.036 417.356 122.365L366.202 189.49C366.002 189.752 365.607 189.753 365.407 189.49L314.253 122.365C314.002 122.036 314.237 121.562 314.651 121.562H402.567L431.417 90.8922H279.976L365.916 208.403L451.857 90.8922H435.535L406.685 121.562Z" fill="#1891AC"/>
</svg>
