<svg width="825" height="587" viewBox="0 0 825 587" fill="none" xmlns="http://www.w3.org/2000/svg">
<rect width="825" height="587" rx="12" fill="#131111"/>
<path fill-rule="evenodd" clip-rule="evenodd" d="M335.57 199.5C335.57 202.538 333.107 205 330.07 205C329.337 205 328.637 204.857 327.997 204.596L316.232 217.5H323.635C325.664 217.5 326.848 219.79 325.675 221.446L271.609 297.717C271.465 297.921 271.297 298.095 271.113 298.24V383.5H281.57V386.5H269.613H256.57V383.5H268.113V298.305C267.895 298.149 267.697 297.952 267.53 297.717L213.465 221.446C212.291 219.79 213.475 217.5 215.504 217.5H312.172L325.627 202.743C324.962 201.834 324.57 200.713 324.57 199.5C324.57 196.462 327.032 194 330.07 194C333.107 194 335.57 196.462 335.57 199.5ZM295.717 240H301.009C301.419 240 301.655 240.467 301.411 240.797L269.902 283.456C269.702 283.726 269.298 283.726 269.098 283.456L237.589 240.797C237.345 240.467 237.581 240 237.991 240H291.658L309.437 220.5H216.472L269.57 295.406L322.668 220.5H313.497L295.717 240Z" fill="#1891AC"/>
<path d="M358.741 276.836V281.336H369.073V302.036H373.573V281.336H383.905V276.836H358.741ZM394.338 281.3H412.734V276.8H394.338C390.594 276.8 387.57 279.86 387.57 283.604V295.196C387.57 298.94 390.594 302 394.338 302H412.734V297.5H394.338C393.078 297.5 392.034 296.456 392.034 295.196V290.444H408.234V285.944H392.034V283.604C392.034 282.344 393.078 281.3 394.338 281.3ZM426.599 281.3H439.199V276.8H426.599C419.651 276.8 413.999 282.452 413.999 289.4C413.999 296.348 419.651 302 426.599 302H439.199V297.5H426.599C422.135 297.5 418.499 293.864 418.499 289.4C418.499 284.936 422.135 281.3 426.599 281.3ZM463.5 276.8V285.944H447.3V276.8H442.8V302H447.3V290.444H463.5V302H468V276.8H463.5ZM476.093 302V276.8H471.593V302H476.093ZM486.483 281.3H504.879V276.8H486.483C482.739 276.8 479.715 279.86 479.715 283.604V295.196C479.715 298.94 482.739 302 486.483 302H504.879V297.5H486.483C485.223 297.5 484.179 296.456 484.179 295.196V290.444H500.379V285.944H484.179V283.604C484.179 282.344 485.223 281.3 486.483 281.3ZM516.032 297.5C514.448 297.284 513.188 296.024 512.972 294.44V276.836H508.472V294.008C508.472 295.268 508.76 296.456 509.3 297.536C510.056 299.12 511.352 300.416 512.936 301.208C514.016 301.748 515.204 302.036 516.464 302.036H529.244V297.536L516.032 297.5ZM554.795 297.5L544.247 276.8L533.699 297.5L531.395 302H536.435L538.739 297.5L544.247 286.7L549.755 297.5L552.059 302H557.099L554.795 297.5ZM579.973 276.8V292.856L563.773 280.364L559.273 276.908V302.036H563.773V286.088L579.973 298.58L584.473 302.036V276.836L579.973 276.8ZM600.666 276.8H588.066V302H600.666C604.122 302 607.254 300.596 609.522 298.292C609.774 298.04 610.026 297.788 610.242 297.536C612.114 295.34 613.23 292.496 613.23 289.4C613.23 282.452 607.578 276.836 600.63 276.836L600.666 276.8ZM600.63 297.536H592.53V281.336H600.63C605.094 281.336 608.73 284.972 608.73 289.436C608.73 293.9 605.094 297.536 600.63 297.536Z" fill="white"/>
</svg>
