<svg width="60" height="60" viewBox="0 0 60 60" fill="none" xmlns="http://www.w3.org/2000/svg">
<g opacity="0.95">
<path d="M29.9766 4.47058C15.4863 4.46472 3.75 16.1952 3.75 30.6737C3.75 42.1229 11.0918 51.8554 21.3164 55.4296C22.6934 55.7753 22.4824 54.7968 22.4824 54.1288V49.5878C14.5313 50.5194 14.209 45.2577 13.6758 44.3788C12.5977 42.5389 10.0488 42.0702 10.8105 41.1913C12.6211 40.2596 14.4668 41.4257 16.6055 44.5839C18.1523 46.8749 21.1699 46.4882 22.6992 46.1073C23.0332 44.7304 23.748 43.4999 24.7324 42.5448C16.4941 41.0682 13.0605 36.0409 13.0605 30.0643C13.0605 27.1639 14.0156 24.4979 15.8906 22.3475C14.6953 18.8026 16.002 15.7675 16.1777 15.3163C19.582 15.0116 23.1211 17.7538 23.3965 17.9706C25.3301 17.4491 27.5391 17.1737 30.0117 17.1737C32.4961 17.1737 34.7109 17.4608 36.6621 17.9882C37.3242 17.4843 40.6055 15.1288 43.7695 15.4159C43.9395 15.8671 45.2168 18.8319 44.0918 22.33C45.9902 24.4862 46.957 27.1757 46.957 30.0819C46.957 36.0702 43.5 41.1034 35.2383 42.5565C35.9459 43.2524 36.5078 44.0824 36.8911 44.9979C37.2744 45.9134 37.4714 46.8961 37.4707 47.8886V54.4803C37.5176 55.0077 37.4707 55.5292 38.3496 55.5292C48.7266 52.0311 56.1973 42.2284 56.1973 30.6796C56.1973 16.1952 44.4551 4.47058 29.9766 4.47058Z" fill="#FFFFFF"/>
</g>
</svg>
